<?xml version="1.0" encoding="iso-8859-1"?>
<!-- Uploaded to: SVG Repo, www.svgrepo.com, Generator: SVG Repo Mixer Tools -->
<svg height="800px" width="800px" version="1.1" id="Layer_1" xmlns="http://www.w3.org/2000/svg" xmlns:xlink="http://www.w3.org/1999/xlink" 
	 viewBox="0 0 512 512" xml:space="preserve">
<path style="fill:#E4EAF8;" d="M104.136,425.22H468.61c4.792,0,8.678-3.886,8.678-8.678V156.203c0-4.792-3.886-8.678-8.678-8.678
	H104.136c-4.792,0-8.678,3.886-8.678,8.678v260.339C95.458,421.335,99.343,425.22,104.136,425.22z"/>
<g>
	<path style="fill:#C7CFE2;" d="M104.136,147.525c-4.792,0-8.678,3.886-8.678,8.678v242.983h321.085
		c19.171,0,34.712-15.541,34.712-34.712V147.525H104.136z"/>
	<path style="fill:#C7CFE2;" d="M442.576,130.169h-8.678c-4.797,0-8.678-3.886-8.678-8.678s3.881-8.678,8.678-8.678h8.678
		c4.797,0,8.678,3.886,8.678,8.678S447.373,130.169,442.576,130.169z"/>
	<path style="fill:#C7CFE2;" d="M482.127,459.932h-17.254c-4.797,0-8.678-3.886-8.678-8.678c0-4.792,3.881-8.678,8.678-8.678h17.254
		c4.797,0,8.678,3.886,8.678,8.678C490.805,456.047,486.924,459.932,482.127,459.932z M430.364,459.932H413.11
		c-4.797,0-8.678-3.886-8.678-8.678c0-4.792,3.881-8.678,8.678-8.678h17.254c4.797,0,8.678,3.886,8.678,8.678
		C439.042,456.047,435.161,459.932,430.364,459.932z M378.601,459.932h-17.254c-4.797,0-8.678-3.886-8.678-8.678
		c0-4.792,3.881-8.678,8.678-8.678h17.254c4.797,0,8.678,3.886,8.678,8.678C387.279,456.047,383.398,459.932,378.601,459.932z
		 M326.839,459.932h-17.254c-4.797,0-8.678-3.886-8.678-8.678c0-4.792,3.881-8.678,8.678-8.678h17.254
		c4.797,0,8.678,3.886,8.678,8.678C335.517,456.047,331.636,459.932,326.839,459.932z M275.076,459.932h-17.254
		c-4.797,0-8.678-3.886-8.678-8.678c0-4.792,3.881-8.678,8.678-8.678h17.254c4.797,0,8.678,3.886,8.678,8.678
		C283.754,456.047,279.873,459.932,275.076,459.932z M223.313,459.932h-17.254c-4.797,0-8.678-3.886-8.678-8.678
		c0-4.792,3.881-8.678,8.678-8.678h17.254c4.797,0,8.678,3.886,8.678,8.678C231.991,456.047,228.11,459.932,223.313,459.932z
		 M171.55,459.932h-17.245c-4.797,0-8.678-3.886-8.678-8.678c0-4.792,3.881-8.678,8.678-8.678h17.245
		c4.797,0,8.678,3.886,8.678,8.678C180.228,456.047,176.347,459.932,171.55,459.932z M119.797,459.932h-17.255
		c-4.797,0-8.678-3.886-8.678-8.678c0-4.792,3.881-8.678,8.678-8.678h17.254c4.797,0,8.678,3.886,8.678,8.678
		C128.474,456.047,124.593,459.932,119.797,459.932z M71.483,450.759c-3.101,0-6.093-1.661-7.662-4.581
		c-2-3.737-3.068-7.975-3.076-12.254v-8.754c0-4.792,3.881-8.678,8.678-8.678c4.797,0,8.678,3.886,8.678,8.678v8.729
		c0,1.445,0.347,2.826,1.025,4.085c2.263,4.225,0.669,9.483-3.55,11.746C74.271,450.428,72.865,450.759,71.483,450.759z
		 M503.322,439.186c-4.797,0-8.678-3.886-8.678-8.678v-17.254c0-4.792,3.881-8.678,8.678-8.678c4.797,0,8.678,3.886,8.678,8.678
		v17.254C512,435.301,508.119,439.186,503.322,439.186z M503.322,387.423c-4.797,0-8.678-3.886-8.678-8.678v-17.254
		c0-4.792,3.881-8.678,8.678-8.678c4.797,0,8.678,3.886,8.678,8.678v17.254C512,383.538,508.119,387.423,503.322,387.423z
		 M503.322,335.662c-4.797,0-8.678-3.886-8.678-8.678V309.73c0-4.792,3.881-8.678,8.678-8.678c4.797,0,8.678,3.886,8.678,8.678
		v17.254C512,331.775,508.119,335.662,503.322,335.662z M503.322,283.903c-4.797,0-8.678-3.886-8.678-8.678v-17.254
		c0-4.792,3.881-8.678,8.678-8.678c4.797,0,8.678,3.886,8.678,8.678v17.254C512,280.017,508.119,283.903,503.322,283.903z
		 M503.322,232.14c-4.797,0-8.678-3.886-8.678-8.678v-17.254c0-4.792,3.881-8.678,8.678-8.678c4.797,0,8.678,3.886,8.678,8.678
		v17.254C512,228.254,508.119,232.14,503.322,232.14z M503.322,180.377c-4.797,0-8.678-3.886-8.678-8.678v-17.254
		c0-4.792,3.881-8.678,8.678-8.678c4.797,0,8.678,3.886,8.678,8.678v17.254C512,176.491,508.119,180.377,503.322,180.377z
		 M493.991,132.139c-1.356,0-2.737-0.318-4.025-0.991c-1.237-0.648-2.575-0.978-3.999-0.978h-8.889
		c-4.797,0-8.678-3.886-8.678-8.678s3.881-8.678,8.678-8.678h8.889c4.195,0,8.373,1.025,12.068,2.966
		c4.246,2.225,5.881,7.471,3.652,11.716C500.136,130.449,497.118,132.139,493.991,132.139z"/>
	<path style="fill:#C7CFE2;" d="M69.424,399.186c-4.797,0-8.678-3.886-8.678-8.678v-8.678c0-4.792,3.881-8.678,8.678-8.678
		s8.678,3.886,8.678,8.678v8.678C78.102,395.301,74.22,399.186,69.424,399.186z"/>
</g>
<path style="fill:#E4EAF8;" d="M416.542,381.831H17.356C7.77,381.831,0,374.06,0,364.475V69.424c0-9.586,7.77-17.356,17.356-17.356
	h399.186c9.586,0,17.356,7.77,17.356,17.356v295.051C433.898,374.06,426.128,381.831,416.542,381.831z"/>
<path style="fill:#4DD5FF;" d="M399.186,355.797H34.712c-4.792,0-8.678-3.886-8.678-8.678V86.78c0-4.792,3.886-8.678,8.678-8.678
	h364.475c4.792,0,8.678,3.886,8.678,8.678v260.339C407.864,351.911,403.979,355.797,399.186,355.797z"/>
<circle style="fill:#8BE4FF;" cx="104.136" cy="156.203" r="52.068"/>
<circle style="fill:#FFFFFF;" cx="104.136" cy="156.203" r="26.034"/>
<path style="fill:#81DEB6;" d="M220.544,185.832c-6.777-6.777-17.767-6.777-24.545,0L28.575,353.255
	c1.571,1.57,3.74,2.542,6.136,2.542h242.983V242.983L220.544,185.832z"/>
<path style="fill:#B4E66E;" d="M407.864,347.119V199.593l-44.134-44.134c-6.777-6.777-17.767-6.777-24.545,0L138.847,355.797
	h260.339C403.979,355.797,407.864,351.911,407.864,347.119z"/>
</svg>